<?xml version="1.0" encoding="UTF-8" standalone="no"?>
<!DOCTYPE svg PUBLIC "-//W3C//DTD SVG 1.1//EN" "http://www.w3.org/Graphics/SVG/1.1/DTD/svg11.dtd">
<svg width="100%" height="100%" viewBox="0 0 80 23" version="1.1" xmlns="http://www.w3.org/2000/svg" xmlns:xlink="http://www.w3.org/1999/xlink" xml:space="preserve" xmlns:serif="http://www.serif.com/" style="fill-rule:evenodd;clip-rule:evenodd;stroke-linejoin:round;stroke-miterlimit:2;">
    <g transform="matrix(1,0,0,1,-1591,0)">
        <g id="Artboard2" transform="matrix(0.586073,0,0,0.542584,711.667,43.0004)">
            <rect x="1500.38" y="-79.251" width="136.502" height="40.915" style="fill:none;"/>
            <g transform="matrix(1.79069,0,0,1.93422,-1213.62,44.5686)">
                <g transform="matrix(1.12444,0,0,1.12444,1499.77,-84.3315)">
                    <path d="M21.782,24.172L25.001,22.305L26.459,24.831L23.471,26.556L25.624,26.556L25.624,31.874L22.724,31.874L22.724,29.437L21.782,29.437L21.782,31.874L18.865,31.874L18.865,25.471L18.331,25.471L18.331,22.589L21.782,22.589L21.782,24.172Z" style="fill:white;fill-rule:nonzero;"/>
                </g>
                <g transform="matrix(1.12444,0,0,1.12444,1499.77,-84.3315)">
                    <path d="M30.906,30.896L29.892,30.896L29.803,31.874L26.904,31.874L27.722,22.589L33.823,22.589L33.823,31.874L30.906,32.657L30.906,30.896ZM30.159,28.014L30.906,28.014L30.906,25.471L30.373,25.471L30.159,28.014Z" style="fill:white;fill-rule:nonzero;"/>
                </g>
                <g transform="matrix(1.12444,0,0,1.12444,1499.77,-84.3315)">
                    <path d="M37.167,27.267L40.048,27.267L40.048,30.149L37.167,30.149L37.167,31.874L34.268,31.874L34.268,22.589L41.258,22.589L40.92,26.396L38.003,26.396L38.092,25.471L37.167,25.471L37.167,27.267Z" style="fill:white;fill-rule:nonzero;"/>
                </g>
                <g transform="matrix(1.12444,0,0,1.12444,1499.77,-84.3315)">
                    <path d="M42.432,25.471L41.703,25.471L41.703,22.589L45.349,22.589L45.349,28.993L46.256,28.993L45.687,22.589L48.604,22.589L49.422,31.874L42.432,31.874L42.432,25.471Z" style="fill:white;fill-rule:nonzero;"/>
                </g>
                <g transform="matrix(1.12444,0,0,1.12444,1499.77,-84.3315)">
                    <path d="M52.766,27.267L55.647,27.267L55.647,30.149L52.766,30.149L52.766,31.874L49.867,31.874L49.867,22.589L56.857,22.589L56.519,26.396L53.602,26.396L53.691,25.471L52.766,25.471L52.766,27.267Z" style="fill:white;fill-rule:nonzero;"/>
                </g>
                <g transform="matrix(1.12444,0,0,1.12444,1499.77,-84.3315)">
                    <path d="M60.201,27.267L63.082,27.267L63.082,30.149L60.201,30.149L60.201,31.874L57.302,31.874L57.302,22.589L64.292,22.589L63.954,26.396L61.037,26.396L61.126,25.471L60.201,25.471L60.201,27.267Z" style="fill:white;fill-rule:nonzero;"/>
                </g>
                <g transform="matrix(1.12444,0,0,1.12444,1499.77,-84.3315)">
                    <path d="M68.472,22.589L67.902,28.993L70.677,28.993L70.677,31.874L64.736,31.874L65.306,25.471L64.843,25.471L64.843,22.589L68.472,22.589Z" style="fill:white;fill-rule:nonzero;"/>
                </g>
                <g transform="matrix(1.12444,0,0,1.12444,1499.77,-84.3315)">
                    <path d="M77.65,22.589L77.383,25.471L74.039,25.471L74.039,25.773L77.347,25.773L77.098,28.637L74.039,28.637L74.039,28.993L77.436,28.993L77.436,31.874L71.122,31.874L71.122,22.589L77.65,22.589Z" style="fill:white;fill-rule:nonzero;"/>
                </g>
            </g>
        </g>
    </g>
</svg>
