<?xml version="1.0" encoding="UTF-8" standalone="no"?>
<!DOCTYPE svg PUBLIC "-//W3C//DTD SVG 1.1//EN" "http://www.w3.org/Graphics/SVG/1.1/DTD/svg11.dtd">
<svg width="100%" height="100%" viewBox="0 0 80 29" version="1.1" xmlns="http://www.w3.org/2000/svg" xmlns:xlink="http://www.w3.org/1999/xlink" xml:space="preserve" xmlns:serif="http://www.serif.com/" style="fill-rule:evenodd;clip-rule:evenodd;stroke-linejoin:round;stroke-miterlimit:2;">
    <g transform="matrix(1,0,0,1,-1500,0)">
        <g id="Artboard2" transform="matrix(0.586073,0,0,0.701449,620.67,55.5906)">
            <rect x="1500.38" y="-79.251" width="136.502" height="40.915" style="fill:none;"/>
            <g transform="matrix(1.79069,0,0,1.49615,-1213.62,16.5258)">
                <g transform="matrix(1.12444,0,0,1.12444,1499.77,-84.3315)">
                    <g transform="matrix(17.7867,0,0,17.7867,77.6495,31.8741)">
                    </g>
                    <text x="17.886px" y="31.874px" style="font-family:'BIGX';font-size:17.787px;fill:white;">Kafuffle</text>
                </g>
                <g transform="matrix(0.328679,0,0,0.328679,638.992,-96.6038)">
                    <g transform="matrix(20,0,0,20,2682.35,167.668)">
                        <path d="M0.605,-0.589L0.378,-0.589L0.378,-0L0.241,-0L0.241,-0.589L0.014,-0.589L0.014,-0.71L0.605,-0.71L0.605,-0.589Z" style="fill:white;fill-rule:nonzero;"/>
                    </g>
                    <g transform="matrix(20,0,0,20,2693.41,167.668)">
                        <path d="M0.267,-0.71L0.407,-0.71L0.668,-0L0.526,-0L0.467,-0.177L0.206,-0.177L0.147,-0L0.005,-0L0.267,-0.71ZM0.435,-0.274L0.337,-0.567L0.239,-0.274L0.435,-0.274Z" style="fill:white;fill-rule:nonzero;"/>
                    </g>
                    <g transform="matrix(20,0,0,20,2706.85,167.668)">
                        <path d="M0.074,-0L0.074,-0.71L0.212,-0.71L0.212,-0.121L0.574,-0.121L0.574,-0L0.074,-0Z" style="fill:white;fill-rule:nonzero;"/>
                    </g>
                    <g transform="matrix(20,0,0,20,2718.53,167.668)">
                        <path d="M0.074,-0L0.074,-0.71L0.212,-0.71L0.212,-0.373L0.51,-0.711L0.662,-0.711L0.39,-0.396L0.679,-0L0.523,-0L0.302,-0.306L0.212,-0.212L0.212,-0L0.074,-0Z" style="fill:white;fill-rule:nonzero;"/>
                    </g>
                    <g transform="matrix(20,0,0,20,2731.67,167.668)">
                    </g>
                    <g transform="matrix(20,0,0,20,2735.85,167.668)">
                        <path d="M0.267,-0.71L0.407,-0.71L0.668,-0L0.526,-0L0.467,-0.177L0.206,-0.177L0.147,-0L0.005,-0L0.267,-0.71ZM0.435,-0.274L0.337,-0.567L0.239,-0.274L0.435,-0.274Z" style="fill:white;fill-rule:nonzero;"/>
                    </g>
                    <g transform="matrix(20,0,0,20,2749.29,167.668)">
                        <path d="M0.212,-0.456L0.212,-0L0.074,-0L0.074,-0.71L0.184,-0.71L0.551,-0.242L0.551,-0.709L0.689,-0.709L0.689,-0L0.574,-0L0.212,-0.456Z" style="fill:white;fill-rule:nonzero;"/>
                    </g>
                    <g transform="matrix(20,0,0,20,2764.55,167.668)">
                        <path d="M0.074,-0L0.074,-0.71L0.332,-0.71C0.41,-0.71 0.474,-0.694 0.526,-0.663C0.578,-0.631 0.617,-0.588 0.643,-0.535C0.669,-0.481 0.682,-0.421 0.682,-0.356C0.682,-0.284 0.668,-0.221 0.639,-0.168C0.61,-0.115 0.57,-0.073 0.517,-0.044C0.465,-0.015 0.403,-0 0.332,-0L0.074,-0ZM0.543,-0.356C0.543,-0.402 0.535,-0.443 0.518,-0.478C0.502,-0.513 0.478,-0.54 0.446,-0.56C0.415,-0.58 0.377,-0.589 0.332,-0.589L0.212,-0.589L0.212,-0.121L0.332,-0.121C0.378,-0.121 0.416,-0.131 0.447,-0.151C0.478,-0.172 0.502,-0.2 0.518,-0.235C0.535,-0.271 0.543,-0.311 0.543,-0.356Z" style="fill:white;fill-rule:nonzero;"/>
                    </g>
                    <g transform="matrix(20,0,0,20,2778.87,167.668)">
                    </g>
                    <g transform="matrix(20,0,0,20,2783.67,167.668)">
                        <path d="M0.377,0.005C0.325,0.005 0.278,-0.005 0.236,-0.025C0.193,-0.045 0.157,-0.072 0.127,-0.107C0.096,-0.141 0.072,-0.18 0.056,-0.223C0.04,-0.266 0.031,-0.31 0.031,-0.355C0.031,-0.402 0.04,-0.448 0.058,-0.491C0.075,-0.534 0.099,-0.572 0.131,-0.606C0.162,-0.639 0.199,-0.666 0.241,-0.686C0.283,-0.705 0.329,-0.715 0.38,-0.715C0.431,-0.715 0.478,-0.705 0.52,-0.684C0.563,-0.663 0.599,-0.636 0.629,-0.601C0.659,-0.566 0.683,-0.528 0.699,-0.485C0.716,-0.442 0.724,-0.398 0.724,-0.353C0.724,-0.306 0.715,-0.262 0.698,-0.219C0.681,-0.175 0.657,-0.137 0.626,-0.104C0.594,-0.07 0.558,-0.043 0.515,-0.024C0.473,-0.005 0.427,0.005 0.377,0.005ZM0.171,-0.355C0.171,-0.325 0.175,-0.295 0.185,-0.266C0.194,-0.238 0.208,-0.212 0.225,-0.19C0.243,-0.168 0.265,-0.15 0.29,-0.137C0.316,-0.124 0.345,-0.117 0.378,-0.117C0.412,-0.117 0.441,-0.124 0.467,-0.138C0.493,-0.152 0.514,-0.17 0.532,-0.193C0.549,-0.216 0.562,-0.242 0.571,-0.27C0.58,-0.298 0.585,-0.327 0.585,-0.355C0.585,-0.386 0.58,-0.415 0.57,-0.444C0.561,-0.472 0.547,-0.497 0.529,-0.52C0.512,-0.542 0.49,-0.56 0.464,-0.572C0.439,-0.585 0.41,-0.592 0.378,-0.592C0.344,-0.592 0.315,-0.585 0.289,-0.571C0.263,-0.558 0.242,-0.54 0.224,-0.517C0.207,-0.494 0.193,-0.469 0.184,-0.441C0.175,-0.413 0.171,-0.385 0.171,-0.355Z" style="fill:white;fill-rule:nonzero;"/>
                    </g>
                    <g transform="matrix(20,0,0,20,2798.79,167.668)">
                        <path d="M0.074,-0L0.074,-0.71L0.388,-0.71C0.421,-0.71 0.451,-0.703 0.479,-0.69C0.506,-0.677 0.53,-0.659 0.55,-0.636C0.57,-0.613 0.586,-0.588 0.597,-0.56C0.608,-0.532 0.614,-0.503 0.614,-0.474C0.614,-0.444 0.609,-0.415 0.598,-0.387C0.588,-0.36 0.573,-0.335 0.554,-0.315C0.535,-0.294 0.512,-0.278 0.486,-0.267L0.648,-0L0.496,-0L0.35,-0.238L0.212,-0.238L0.212,-0L0.074,-0ZM0.212,-0.359L0.385,-0.359C0.402,-0.359 0.417,-0.364 0.431,-0.374C0.444,-0.385 0.455,-0.398 0.463,-0.416C0.471,-0.433 0.475,-0.453 0.475,-0.474C0.475,-0.497 0.47,-0.517 0.461,-0.534C0.452,-0.551 0.44,-0.564 0.426,-0.574C0.411,-0.584 0.396,-0.589 0.379,-0.589L0.212,-0.589L0.212,-0.359Z" style="fill:white;fill-rule:nonzero;"/>
                    </g>
                    <g transform="matrix(20,0,0,20,2812.01,167.668)">
                        <path d="M0.369,0.005C0.323,0.005 0.279,-0.004 0.238,-0.023C0.197,-0.042 0.161,-0.068 0.13,-0.101C0.099,-0.133 0.075,-0.172 0.058,-0.216C0.04,-0.26 0.032,-0.308 0.032,-0.359C0.032,-0.408 0.041,-0.454 0.058,-0.497C0.076,-0.54 0.1,-0.577 0.131,-0.61C0.162,-0.643 0.199,-0.668 0.241,-0.687C0.283,-0.706 0.329,-0.715 0.378,-0.715C0.444,-0.715 0.502,-0.701 0.549,-0.672C0.597,-0.644 0.633,-0.606 0.657,-0.56L0.554,-0.484C0.536,-0.519 0.511,-0.546 0.479,-0.565C0.446,-0.583 0.411,-0.593 0.373,-0.593C0.343,-0.593 0.316,-0.586 0.291,-0.574C0.266,-0.561 0.245,-0.544 0.227,-0.522C0.209,-0.5 0.195,-0.474 0.185,-0.446C0.176,-0.417 0.171,-0.387 0.171,-0.355C0.171,-0.321 0.176,-0.29 0.187,-0.261C0.197,-0.233 0.212,-0.208 0.231,-0.186C0.249,-0.165 0.272,-0.148 0.297,-0.136C0.323,-0.124 0.35,-0.117 0.381,-0.117C0.417,-0.117 0.452,-0.127 0.485,-0.145C0.518,-0.164 0.549,-0.191 0.577,-0.227L0.577,-0.091C0.518,-0.027 0.449,0.005 0.369,0.005ZM0.567,-0.264L0.424,-0.264L0.424,-0.364L0.681,-0.364L0.681,-0L0.567,-0L0.567,-0.264Z" style="fill:white;fill-rule:nonzero;"/>
                    </g>
                    <g transform="matrix(20,0,0,20,2826.51,167.668)">
                        <path d="M0.267,-0.71L0.407,-0.71L0.668,-0L0.526,-0L0.467,-0.177L0.206,-0.177L0.147,-0L0.005,-0L0.267,-0.71ZM0.435,-0.274L0.337,-0.567L0.239,-0.274L0.435,-0.274Z" style="fill:white;fill-rule:nonzero;"/>
                    </g>
                    <g transform="matrix(20,0,0,20,2839.95,167.668)">
                        <path d="M0.212,-0.456L0.212,-0L0.074,-0L0.074,-0.71L0.184,-0.71L0.551,-0.242L0.551,-0.709L0.689,-0.709L0.689,-0L0.574,-0L0.212,-0.456Z" style="fill:white;fill-rule:nonzero;"/>
                    </g>
                    <g transform="matrix(20,0,0,20,2855.21,167.668)">
                        <rect x="0.074" y="-0.71" width="0.137" height="0.71" style="fill:white;fill-rule:nonzero;"/>
                    </g>
                    <g transform="matrix(20,0,0,20,2860.93,167.668)">
                        <path d="M0.497,-0.523C0.493,-0.528 0.484,-0.535 0.472,-0.542C0.459,-0.55 0.444,-0.558 0.427,-0.566C0.409,-0.573 0.39,-0.58 0.369,-0.585C0.349,-0.59 0.328,-0.593 0.306,-0.593C0.269,-0.593 0.24,-0.586 0.221,-0.572C0.202,-0.558 0.193,-0.539 0.193,-0.514C0.193,-0.494 0.199,-0.479 0.211,-0.468C0.223,-0.457 0.241,-0.447 0.265,-0.439C0.289,-0.431 0.319,-0.423 0.355,-0.413C0.402,-0.402 0.442,-0.388 0.477,-0.372C0.511,-0.356 0.537,-0.335 0.556,-0.308C0.574,-0.282 0.583,-0.248 0.583,-0.205C0.583,-0.167 0.576,-0.135 0.562,-0.108C0.548,-0.081 0.529,-0.059 0.504,-0.043C0.48,-0.026 0.452,-0.014 0.42,-0.006C0.388,0.001 0.355,0.005 0.32,0.005C0.285,0.005 0.249,0.001 0.214,-0.006C0.178,-0.013 0.144,-0.024 0.112,-0.037C0.079,-0.051 0.049,-0.068 0.022,-0.087L0.083,-0.206C0.089,-0.2 0.1,-0.192 0.115,-0.182C0.13,-0.173 0.149,-0.163 0.171,-0.153C0.193,-0.144 0.217,-0.136 0.243,-0.129C0.269,-0.122 0.295,-0.119 0.322,-0.119C0.36,-0.119 0.388,-0.125 0.407,-0.138C0.426,-0.15 0.436,-0.168 0.436,-0.191C0.436,-0.212 0.428,-0.229 0.413,-0.241C0.398,-0.253 0.376,-0.263 0.349,-0.272C0.321,-0.281 0.289,-0.291 0.252,-0.302C0.207,-0.314 0.17,-0.328 0.14,-0.344C0.11,-0.36 0.087,-0.379 0.073,-0.403C0.058,-0.427 0.051,-0.457 0.051,-0.493C0.051,-0.541 0.062,-0.582 0.085,-0.615C0.109,-0.648 0.14,-0.673 0.179,-0.69C0.219,-0.707 0.262,-0.715 0.31,-0.715C0.343,-0.715 0.375,-0.711 0.405,-0.704C0.434,-0.697 0.462,-0.687 0.488,-0.675C0.514,-0.663 0.537,-0.649 0.558,-0.635L0.497,-0.523Z" style="fill:white;fill-rule:nonzero;"/>
                    </g>
                    <g transform="matrix(20,0,0,20,2873.19,167.668)">
                        <path d="M0.567,-0.121L0.567,-0L0.074,-0L0.074,-0.71L0.558,-0.71L0.558,-0.589L0.212,-0.589L0.212,-0.418L0.511,-0.418L0.511,-0.306L0.212,-0.306L0.212,-0.121L0.567,-0.121Z" style="fill:white;fill-rule:nonzero;"/>
                    </g>
                    <g transform="matrix(20,0,0,20,2885.21,167.668)">
                    </g>
                </g>
            </g>
        </g>
    </g>
</svg>
